<svg width="881" height="328" viewBox="0 0 881 328" fill="none" xmlns="http://www.w3.org/2000/svg">
<path fill-rule="evenodd" clip-rule="evenodd" d="M269.427 41C301.137 40.9777 315 76.8812 302.346 105.956C279.206 159.123 281.032 205.679 291.197 263.143C297.844 300.718 265.597 333.656 228.2 326.074L108.343 301.775L35.0299 283.456C11.7391 277.636 -3.40078 254.172 0.656916 230.51C4.44571 208.417 9.45622 187.521 23.4518 167.73C46.1226 135.67 74.9687 108.368 108.343 87.3815C141.718 66.395 178.967 52.1354 217.965 45.4169C234.994 42.4829 252.212 41.0121 269.427 41ZM238.226 79.9613C261.365 79.945 271.482 106.145 262.247 127.362C245.362 166.159 246.694 200.133 254.112 242.066C258.963 269.485 235.431 293.521 208.141 287.989L120.678 270.257L67.1789 256.889C50.1828 252.642 39.1348 235.519 42.0958 218.253C44.8606 202.131 48.517 186.882 58.73 172.44C75.2736 149.045 96.3235 129.122 120.678 113.807C145.032 98.4928 172.214 88.0871 200.672 83.1844C213.099 81.0434 225.663 79.9701 238.226 79.9613Z" fill="black"/>
<path d="M409.282 198.152C399.871 198.152 391.428 196.353 383.955 192.754C376.481 189.064 370.576 183.851 366.24 177.115C361.903 170.288 359.735 162.122 359.735 152.619C359.735 144.5 361.719 137.303 365.686 131.029C369.746 124.755 375.835 119.588 383.955 115.528C392.074 111.469 402.27 108.747 414.541 107.363C426.904 105.886 441.344 105.886 457.86 107.363L458.275 135.596C449.509 134.027 441.575 133.243 434.47 133.243C427.458 133.151 421.461 133.751 416.478 135.042C411.588 136.242 407.805 138.133 405.13 140.717C402.454 143.3 401.116 146.483 401.116 150.266C401.116 155.156 402.962 158.893 406.652 161.476C410.435 164.06 415.464 165.352 421.738 165.352C427.181 165.352 432.071 164.383 436.408 162.445C440.837 160.508 444.343 157.694 446.926 154.003C449.602 150.22 450.94 145.607 450.94 140.163V107.916C450.94 102.842 449.879 98.3668 447.756 94.4916C445.634 90.6165 442.267 87.6179 437.653 85.4958C433.132 83.2814 427.089 82.1742 419.523 82.1742C412.234 82.1742 404.991 83.2814 397.795 85.4958C390.598 87.6179 384.139 90.8472 378.419 95.1836L366.793 64.044C375.928 58.3236 385.708 54.1255 396.134 51.4498C406.56 48.6818 416.801 47.2978 426.858 47.2978C440.145 47.2978 451.816 49.4199 461.873 53.6642C472.022 57.9084 479.957 64.4592 485.678 73.3167C491.398 82.1742 494.258 93.5229 494.258 107.363V194H455.092V179.053C450.571 185.143 444.343 189.848 436.408 193.17C428.473 196.491 419.431 198.152 409.282 198.152ZM530.125 194V52.8338H575.52V69.3032C579.764 62.0142 585.392 56.7089 592.404 53.3874C599.416 50.0658 607.028 48.405 615.24 48.405C618.377 48.405 621.191 48.5896 623.682 48.9586C626.173 49.3277 628.618 49.7429 631.017 50.2042L625.62 96.8444C622.483 95.7372 619.161 94.8607 615.655 94.2149C612.149 93.4767 608.643 93.1077 605.137 93.1077C596.556 93.1077 589.452 95.5988 583.824 100.581C578.288 105.471 575.52 112.668 575.52 122.171V194H530.125ZM692.566 198.152C683.155 198.152 674.712 196.353 667.239 192.754C659.765 189.064 653.86 183.851 649.524 177.115C645.187 170.288 643.019 162.122 643.019 152.619C643.019 144.5 645.003 137.303 648.97 131.029C653.03 124.755 659.119 119.588 667.239 115.528C675.358 111.469 685.553 108.747 697.825 107.363C710.188 105.886 724.628 105.886 741.143 107.363L741.559 135.596C732.793 134.027 724.859 133.243 717.754 133.243C710.742 133.151 704.745 133.751 699.762 135.042C694.872 136.242 691.089 138.133 688.414 140.717C685.738 143.3 684.4 146.483 684.4 150.266C684.4 155.156 686.245 158.893 689.936 161.476C693.719 164.06 698.747 165.352 705.021 165.352C710.465 165.352 715.355 164.383 719.692 162.445C724.12 160.508 727.627 157.694 730.21 154.003C732.886 150.22 734.224 145.607 734.224 140.163V107.916C734.224 102.842 733.162 98.3668 731.04 94.4916C728.918 90.6165 725.551 87.6179 720.937 85.4958C716.416 83.2814 710.373 82.1742 702.807 82.1742C695.518 82.1742 688.275 83.2814 681.079 85.4958C673.882 87.6179 667.423 90.8472 661.703 95.1836L650.077 64.044C659.212 58.3236 668.992 54.1255 679.418 51.4498C689.844 48.6818 700.085 47.2978 710.142 47.2978C723.428 47.2978 735.1 49.4199 745.157 53.6642C755.306 57.9084 763.241 64.4592 768.961 73.3167C774.682 82.1742 777.542 93.5229 777.542 107.363V194H738.375V179.053C733.854 185.143 727.627 189.848 719.692 193.17C711.757 196.491 702.715 198.152 692.566 198.152ZM834.445 198.152C826.88 198.152 820.283 195.753 814.655 190.955C809.119 186.157 806.351 179.653 806.351 171.441C806.351 165.905 807.596 161.153 810.087 157.186C812.671 153.219 816.085 150.128 820.329 147.913C824.665 145.699 829.371 144.592 834.445 144.592C842.104 144.592 848.701 146.991 854.236 151.789C859.772 156.586 862.54 163.137 862.54 171.441C862.54 176.977 861.249 181.729 858.665 185.696C856.082 189.664 852.668 192.708 848.424 194.83C844.18 197.045 839.52 198.152 834.445 198.152Z" fill="black"/>
<path d="M383.384 320.28C377.923 320.28 373.059 319 368.792 316.44C364.611 313.795 361.325 310.168 358.936 305.56C356.632 300.952 355.48 295.619 355.48 289.56C355.48 283.416 356.675 278.04 359.064 273.432C361.539 268.824 364.952 265.24 369.304 262.68C373.741 260.12 378.861 258.84 384.664 258.84C390.467 258.84 395.416 260.077 399.512 262.552C403.693 264.941 406.893 268.397 409.112 272.92C411.331 277.443 412.44 282.819 412.44 289.048C412.44 289.645 412.397 290.285 412.312 290.968C412.312 291.565 412.312 291.949 412.312 292.12H362.008V283.416H404.248L400.152 289.304C400.408 288.877 400.664 288.237 400.92 287.384C401.176 286.445 401.304 285.677 401.304 285.08C401.304 281.581 400.579 278.552 399.128 275.992C397.763 273.432 395.843 271.427 393.368 269.976C390.893 268.525 387.992 267.8 384.664 267.8C380.739 267.8 377.368 268.653 374.552 270.36C371.821 271.981 369.688 274.371 368.152 277.528C366.701 280.6 365.933 284.397 365.848 288.92C365.848 293.528 366.573 297.453 368.024 300.696C369.475 303.939 371.608 306.413 374.424 308.12C377.24 309.827 380.653 310.68 384.664 310.68C388.675 310.68 392.216 309.827 395.288 308.12C398.36 306.328 400.963 303.64 403.096 300.056L411.416 305.304C408.344 310.253 404.461 314.008 399.768 316.568C395.16 319.043 389.699 320.28 383.384 320.28ZM470.635 219.16H480.875V319H470.635V219.16ZM421.355 289.56C421.355 283.16 422.678 277.699 425.323 273.176C427.968 268.568 431.51 265.027 435.947 262.552C440.384 260.077 445.248 258.84 450.539 258.84C455.488 258.84 459.798 260.077 463.467 262.552C467.136 265.027 469.995 268.568 472.043 273.176C474.176 277.699 475.243 283.16 475.243 289.56C475.243 295.875 474.176 301.336 472.043 305.944C469.995 310.552 467.136 314.093 463.467 316.568C459.798 319.043 455.488 320.28 450.539 320.28C445.248 320.28 440.384 319.043 435.947 316.568C431.51 314.093 427.968 310.552 425.323 305.944C422.678 301.336 421.355 295.875 421.355 289.56ZM431.723 289.56C431.723 294.083 432.619 297.923 434.411 301.08C436.288 304.237 438.763 306.627 441.835 308.248C444.907 309.869 448.235 310.68 451.819 310.68C454.806 310.68 457.75 309.869 460.651 308.248C463.552 306.627 465.942 304.237 467.819 301.08C469.696 297.923 470.635 294.083 470.635 289.56C470.635 285.037 469.696 281.197 467.819 278.04C465.942 274.883 463.552 272.493 460.651 270.872C457.75 269.251 454.806 268.44 451.819 268.44C448.235 268.44 444.907 269.251 441.835 270.872C438.763 272.493 436.288 274.883 434.411 278.04C432.619 281.197 431.723 285.037 431.723 289.56ZM509.715 295.96C509.715 300.653 510.782 304.28 512.915 306.84C515.048 309.4 518.163 310.68 522.259 310.68C525.246 310.68 527.848 310.083 530.067 308.888C532.371 307.608 534.12 305.859 535.315 303.64C536.595 301.421 537.235 298.861 537.235 295.96V260.12H547.475V319H537.235V309.784C535.272 313.283 532.84 315.928 529.939 317.72C527.038 319.427 523.624 320.28 519.699 320.28C513.555 320.28 508.648 318.189 504.979 314.008C501.31 309.827 499.475 304.237 499.475 297.24V260.12H509.715V295.96ZM571.333 289.56C571.333 293.656 572.186 297.283 573.893 300.44C575.685 303.597 578.074 306.115 581.061 307.992C584.133 309.784 587.589 310.68 591.429 310.68C594.586 310.68 597.53 310.211 600.261 309.272C603.077 308.248 605.509 306.925 607.557 305.304C609.605 303.597 611.056 301.805 611.909 299.928V312.728C609.861 315.117 606.917 316.995 603.077 318.36C599.322 319.64 595.44 320.28 591.429 320.28C585.712 320.28 580.549 318.957 575.941 316.312C571.333 313.667 567.664 310.04 564.933 305.432C562.288 300.739 560.965 295.448 560.965 289.56C560.965 283.587 562.288 278.296 564.933 273.688C567.664 269.08 571.333 265.453 575.941 262.808C580.549 260.163 585.712 258.84 591.429 258.84C595.44 258.84 599.322 259.523 603.077 260.888C606.917 262.168 609.861 264.003 611.909 266.392V279.192C611.056 277.229 609.605 275.437 607.557 273.816C605.509 272.195 603.077 270.915 600.261 269.976C597.53 268.952 594.586 268.44 591.429 268.44C587.589 268.44 584.133 269.336 581.061 271.128C578.074 272.92 575.685 275.437 573.893 278.68C572.186 281.837 571.333 285.464 571.333 289.56ZM632.458 300.824C632.458 303.043 632.97 304.963 633.994 306.584C635.103 308.205 636.597 309.443 638.474 310.296C640.437 311.064 642.655 311.448 645.13 311.448C648.287 311.448 651.103 310.808 653.578 309.528C656.138 308.248 658.143 306.456 659.594 304.152C661.13 301.763 661.898 299.032 661.898 295.96L663.946 303.64C663.946 307.395 662.794 310.509 660.49 312.984C658.271 315.459 655.498 317.293 652.17 318.488C648.927 319.683 645.685 320.28 642.442 320.28C638.858 320.28 635.487 319.555 632.33 318.104C629.258 316.568 626.783 314.392 624.906 311.576C623.029 308.76 622.09 305.347 622.09 301.336C622.09 295.619 624.095 291.053 628.106 287.64C632.202 284.141 637.877 282.392 645.13 282.392C649.397 282.392 652.938 282.904 655.754 283.928C658.655 284.867 660.959 285.976 662.666 287.256C664.373 288.451 665.525 289.432 666.122 290.2V296.216C663.135 294.168 660.063 292.717 656.906 291.864C653.749 290.925 650.378 290.456 646.794 290.456C643.466 290.456 640.735 290.883 638.602 291.736C636.554 292.589 635.018 293.784 633.994 295.32C632.97 296.856 632.458 298.691 632.458 300.824ZM630.922 273.688L625.93 266.136C628.149 264.515 631.178 262.893 635.018 261.272C638.943 259.651 643.637 258.84 649.098 258.84C653.706 258.84 657.717 259.565 661.13 261.016C664.629 262.381 667.317 264.387 669.194 267.032C671.157 269.677 672.138 272.92 672.138 276.76V319H661.898V278.168C661.898 276.12 661.557 274.456 660.874 273.176C660.191 271.811 659.21 270.744 657.93 269.976C656.735 269.208 655.327 268.653 653.706 268.312C652.085 267.971 650.378 267.8 648.586 267.8C645.685 267.8 643.039 268.141 640.65 268.824C638.346 269.507 636.383 270.317 634.762 271.256C633.141 272.195 631.861 273.005 630.922 273.688ZM680.515 260.12H709.955V269.72H680.515V260.12ZM690.115 239.64H700.355V319H690.115V239.64ZM720.225 235.8C720.225 233.837 720.908 232.173 722.273 230.808C723.724 229.443 725.388 228.76 727.265 228.76C729.228 228.76 730.892 229.443 732.257 230.808C733.622 232.173 734.305 233.837 734.305 235.8C734.305 237.677 733.622 239.341 732.257 240.792C730.892 242.157 729.228 242.84 727.265 242.84C725.388 242.84 723.724 242.157 722.273 240.792C720.908 239.341 720.225 237.677 720.225 235.8ZM722.145 260.12H732.385V319H722.145V260.12ZM748.355 289.56C748.355 283.587 749.678 278.296 752.323 273.688C755.054 269.08 758.723 265.453 763.331 262.808C767.939 260.163 773.102 258.84 778.819 258.84C784.622 258.84 789.784 260.163 794.307 262.808C798.915 265.453 802.542 269.08 805.187 273.688C807.918 278.296 809.283 283.587 809.283 289.56C809.283 295.448 807.918 300.739 805.187 305.432C802.542 310.04 798.915 313.667 794.307 316.312C789.784 318.957 784.622 320.28 778.819 320.28C773.102 320.28 767.939 318.957 763.331 316.312C758.723 313.667 755.054 310.04 752.323 305.432C749.678 300.739 748.355 295.448 748.355 289.56ZM758.723 289.56C758.723 293.656 759.576 297.283 761.283 300.44C763.075 303.597 765.464 306.115 768.451 307.992C771.523 309.784 774.979 310.68 778.819 310.68C782.659 310.68 786.072 309.784 789.059 307.992C792.131 306.115 794.52 303.597 796.227 300.44C798.019 297.283 798.915 293.656 798.915 289.56C798.915 285.464 798.019 281.837 796.227 278.68C794.52 275.437 792.131 272.92 789.059 271.128C786.072 269.336 782.659 268.44 778.819 268.44C774.979 268.44 771.523 269.336 768.451 271.128C765.464 272.92 763.075 275.437 761.283 278.68C759.576 281.837 758.723 285.464 758.723 289.56ZM861.11 283.16C861.11 278.296 860.043 274.627 857.91 272.152C855.777 269.677 852.662 268.44 848.566 268.44C845.579 268.44 842.934 269.08 840.63 270.36C838.411 271.555 836.662 273.261 835.382 275.48C834.187 277.699 833.59 280.259 833.59 283.16V319H823.35V260.12H833.59V269.336C835.553 265.752 837.985 263.107 840.886 261.4C843.873 259.693 847.286 258.84 851.126 258.84C857.355 258.84 862.262 260.931 865.846 265.112C869.515 269.208 871.35 274.797 871.35 281.88V319H861.11V283.16Z" fill="black"/>
</svg>
