<svg width="1163" height="324" viewBox="0 0 1163 324" fill="none" xmlns="http://www.w3.org/2000/svg">
<path fill-rule="evenodd" clip-rule="evenodd" d="M304.271 1.17854e-05C340.081 -0.0252363 355.738 40.5216 341.447 73.3567C315.315 133.399 317.377 185.977 328.857 250.872C336.363 293.306 299.946 330.504 257.712 321.942L122.355 294.5L39.5602 273.812C13.2572 267.24 -3.8406 240.74 0.741872 214.019C5.02065 189.068 10.6792 165.47 26.4848 143.119C52.0874 106.914 84.6642 76.0804 122.355 52.3798C160.046 28.6793 202.112 12.5755 246.153 4.98808C265.385 1.6747 284.83 0.0137191 304.271 1.17854e-05ZM269.036 44C295.168 43.9816 306.593 73.5699 296.164 97.5306C277.095 141.345 278.6 179.713 286.977 227.069C292.455 258.034 265.88 285.179 235.06 278.931L136.286 258.906L75.8683 243.809C56.6742 239.013 44.1974 219.676 47.5414 200.176C50.6637 181.969 54.7929 164.749 66.3268 148.438C85.0098 122.018 108.782 99.5182 136.286 82.2232C163.79 64.9282 194.488 53.1768 226.626 47.64C240.66 45.2221 254.849 44.01 269.036 44Z" fill="white"/>
<path d="M392.708 194L465.09 0.242431H518.374L591.448 194H539.687L525.986 154.695H456.51L443.085 194H392.708ZM466.89 116.359H515.329L490.971 49.3738L466.89 116.359ZM636.756 194V42.1771H585.134V0.242431H734.604V42.1771H682.981V194H636.756ZM762.733 194V0.242431H806.882L880.51 122.448L862.241 122.586L932.271 0.242431H976.282V194H931.717L932.548 58.9233L940.713 61.8297L884.8 157.463H854.214L796.087 61.8297L803.976 58.9233L804.806 194H762.733ZM1009.78 194V155.664L1095.86 42.1771H1012.96V0.242431H1151.5V38.302L1065.83 152.065H1152.19V194H1009.78Z" fill="white"/>
<path d="M404.032 300.952C405.227 302.744 406.592 304.408 408.128 305.944C409.664 307.48 411.413 308.717 413.376 309.656C415.424 310.509 417.643 310.936 420.032 310.936C422.933 310.936 425.195 310.296 426.816 309.016C428.523 307.651 429.376 305.816 429.376 303.512C429.376 301.464 428.693 299.757 427.328 298.392C426.048 296.941 424.384 295.747 422.336 294.808C420.288 293.784 418.112 292.845 415.808 291.992C413.248 290.968 410.645 289.773 408 288.408C405.44 286.957 403.264 285.123 401.472 282.904C399.765 280.6 398.912 277.741 398.912 274.328C398.912 270.829 399.808 267.928 401.6 265.624C403.477 263.32 405.867 261.613 408.768 260.504C411.755 259.395 414.827 258.84 417.984 258.84C421.141 258.84 424.085 259.352 426.816 260.376C429.632 261.4 432.107 262.765 434.24 264.472C436.373 266.179 438.037 268.141 439.232 270.36L431.04 275.608C429.419 273.389 427.371 271.555 424.896 270.104C422.507 268.653 419.776 267.928 416.704 267.928C414.571 267.928 412.736 268.397 411.2 269.336C409.664 270.275 408.896 271.725 408.896 273.688C408.896 275.224 409.493 276.589 410.688 277.784C411.883 278.979 413.419 280.045 415.296 280.984C417.173 281.923 419.136 282.819 421.184 283.672C424.597 285.037 427.712 286.531 430.528 288.152C433.344 289.688 435.563 291.565 437.184 293.784C438.891 296.003 439.744 298.861 439.744 302.36C439.744 307.48 437.867 311.747 434.112 315.16C430.443 318.573 425.579 320.28 419.52 320.28C415.595 320.28 412.053 319.597 408.896 318.232C405.739 316.781 403.051 314.947 400.832 312.728C398.699 310.509 397.077 308.248 395.968 305.944L404.032 300.952ZM448.105 289.56C448.105 283.587 449.428 278.296 452.073 273.688C454.804 269.08 458.473 265.453 463.081 262.808C467.689 260.163 472.852 258.84 478.569 258.84C484.372 258.84 489.534 260.163 494.057 262.808C498.665 265.453 502.292 269.08 504.937 273.688C507.668 278.296 509.033 283.587 509.033 289.56C509.033 295.448 507.668 300.739 504.937 305.432C502.292 310.04 498.665 313.667 494.057 316.312C489.534 318.957 484.372 320.28 478.569 320.28C472.852 320.28 467.689 318.957 463.081 316.312C458.473 313.667 454.804 310.04 452.073 305.432C449.428 300.739 448.105 295.448 448.105 289.56ZM458.473 289.56C458.473 293.656 459.326 297.283 461.033 300.44C462.825 303.597 465.214 306.115 468.201 307.992C471.273 309.784 474.729 310.68 478.569 310.68C482.409 310.68 485.822 309.784 488.809 307.992C491.881 306.115 494.27 303.597 495.977 300.44C497.769 297.283 498.665 293.656 498.665 289.56C498.665 285.464 497.769 281.837 495.977 278.68C494.27 275.437 491.881 272.92 488.809 271.128C485.822 269.336 482.409 268.44 478.569 268.44C474.729 268.44 471.273 269.336 468.201 271.128C465.214 272.92 462.825 275.437 461.033 278.68C459.326 281.837 458.473 285.464 458.473 289.56ZM523.1 219.16H533.34V319H523.1V219.16ZM562.84 295.96C562.84 300.653 563.907 304.28 566.04 306.84C568.173 309.4 571.288 310.68 575.384 310.68C578.371 310.68 580.973 310.083 583.192 308.888C585.496 307.608 587.245 305.859 588.44 303.64C589.72 301.421 590.36 298.861 590.36 295.96V260.12H600.6V319H590.36V309.784C588.397 313.283 585.965 315.928 583.064 317.72C580.163 319.427 576.749 320.28 572.824 320.28C566.68 320.28 561.773 318.189 558.104 314.008C554.435 309.827 552.6 304.237 552.6 297.24V260.12H562.84V295.96ZM610.89 260.12H640.33V269.72H610.89V260.12ZM620.49 239.64H630.73V319H620.49V239.64ZM650.6 235.8C650.6 233.837 651.283 232.173 652.648 230.808C654.099 229.443 655.763 228.76 657.64 228.76C659.603 228.76 661.267 229.443 662.632 230.808C663.997 232.173 664.68 233.837 664.68 235.8C664.68 237.677 663.997 239.341 662.632 240.792C661.267 242.157 659.603 242.84 657.64 242.84C655.763 242.84 654.099 242.157 652.648 240.792C651.283 239.341 650.6 237.677 650.6 235.8ZM652.52 260.12H662.76V319H652.52V260.12ZM678.73 289.56C678.73 283.587 680.053 278.296 682.698 273.688C685.429 269.08 689.098 265.453 693.706 262.808C698.314 260.163 703.477 258.84 709.194 258.84C714.997 258.84 720.159 260.163 724.682 262.808C729.29 265.453 732.917 269.08 735.562 273.688C738.293 278.296 739.658 283.587 739.658 289.56C739.658 295.448 738.293 300.739 735.562 305.432C732.917 310.04 729.29 313.667 724.682 316.312C720.159 318.957 714.997 320.28 709.194 320.28C703.477 320.28 698.314 318.957 693.706 316.312C689.098 313.667 685.429 310.04 682.698 305.432C680.053 300.739 678.73 295.448 678.73 289.56ZM689.098 289.56C689.098 293.656 689.951 297.283 691.658 300.44C693.45 303.597 695.839 306.115 698.826 307.992C701.898 309.784 705.354 310.68 709.194 310.68C713.034 310.68 716.447 309.784 719.434 307.992C722.506 306.115 724.895 303.597 726.602 300.44C728.394 297.283 729.29 293.656 729.29 289.56C729.29 285.464 728.394 281.837 726.602 278.68C724.895 275.437 722.506 272.92 719.434 271.128C716.447 269.336 713.034 268.44 709.194 268.44C705.354 268.44 701.898 269.336 698.826 271.128C695.839 272.92 693.45 275.437 691.658 278.68C689.951 281.837 689.098 285.464 689.098 289.56ZM791.485 283.16C791.485 278.296 790.418 274.627 788.285 272.152C786.152 269.677 783.037 268.44 778.941 268.44C775.954 268.44 773.309 269.08 771.005 270.36C768.786 271.555 767.037 273.261 765.757 275.48C764.562 277.699 763.965 280.259 763.965 283.16V319H753.725V260.12H763.965V269.336C765.928 265.752 768.36 263.107 771.261 261.4C774.248 259.693 777.661 258.84 781.501 258.84C787.73 258.84 792.637 260.931 796.221 265.112C799.89 269.208 801.725 274.797 801.725 281.88V319H791.485V283.16ZM823.407 300.952C824.602 302.744 825.967 304.408 827.503 305.944C829.039 307.48 830.788 308.717 832.751 309.656C834.799 310.509 837.018 310.936 839.407 310.936C842.308 310.936 844.57 310.296 846.191 309.016C847.898 307.651 848.751 305.816 848.751 303.512C848.751 301.464 848.068 299.757 846.703 298.392C845.423 296.941 843.759 295.747 841.711 294.808C839.663 293.784 837.487 292.845 835.183 291.992C832.623 290.968 830.02 289.773 827.375 288.408C824.815 286.957 822.639 285.123 820.847 282.904C819.14 280.6 818.287 277.741 818.287 274.328C818.287 270.829 819.183 267.928 820.975 265.624C822.852 263.32 825.242 261.613 828.143 260.504C831.13 259.395 834.202 258.84 837.359 258.84C840.516 258.84 843.46 259.352 846.191 260.376C849.007 261.4 851.482 262.765 853.615 264.472C855.748 266.179 857.412 268.141 858.607 270.36L850.415 275.608C848.794 273.389 846.746 271.555 844.271 270.104C841.882 268.653 839.151 267.928 836.079 267.928C833.946 267.928 832.111 268.397 830.575 269.336C829.039 270.275 828.271 271.725 828.271 273.688C828.271 275.224 828.868 276.589 830.063 277.784C831.258 278.979 832.794 280.045 834.671 280.984C836.548 281.923 838.511 282.819 840.559 283.672C843.972 285.037 847.087 286.531 849.903 288.152C852.719 289.688 854.938 291.565 856.559 293.784C858.266 296.003 859.119 298.861 859.119 302.36C859.119 307.48 857.242 311.747 853.487 315.16C849.818 318.573 844.954 320.28 838.895 320.28C834.97 320.28 831.428 319.597 828.271 318.232C825.114 316.781 822.426 314.947 820.207 312.728C818.074 310.509 816.452 308.248 815.343 305.944L823.407 300.952Z" fill="white"/>
</svg>
