<svg width="659" height="615" viewBox="0 0 659 615" fill="none" xmlns="http://www.w3.org/2000/svg">
<path fill-rule="evenodd" clip-rule="evenodd" d="M578.347 2.24004e-05C646.414 -0.0479673 676.173 77.0219 649.009 139.434C599.338 253.56 603.258 353.497 625.078 476.847C639.346 557.505 570.126 628.209 489.849 611.934L232.568 559.774L75.1945 520.451C25.1988 507.959 -7.30006 457.59 1.41012 406.799C9.54306 359.374 20.2985 314.52 50.3412 272.035C99.0058 203.217 160.926 144.611 232.568 99.5616C304.209 54.5125 384.167 23.9031 467.878 9.48115C504.434 3.1832 541.393 0.0260763 578.347 2.24004e-05ZM511.378 83.6337C561.048 83.5986 582.764 139.839 562.942 185.383C526.696 268.664 529.556 341.591 545.479 431.604C555.891 490.462 505.378 542.057 446.798 530.181L259.052 492.118L144.212 463.423C107.728 454.307 84.0129 417.551 90.369 380.487C96.3038 345.88 104.152 313.148 126.076 282.146C161.588 231.928 206.773 189.161 259.052 156.287C311.33 123.413 369.679 101.076 430.765 90.5523C457.441 85.9565 484.411 83.6527 511.378 83.6337Z" fill="white"/>
</svg>
